<?xml version="1.0" encoding="UTF-8"?>
<svg id="Layer_1" xmlns="http://www.w3.org/2000/svg" version="1.1" viewBox="0 0 100 100">
  <!-- Generator: Adobe Illustrator 30.2.0, SVG Export Plug-In . SVG Version: 2.1.1 Build 105)  -->
  <path d="M75.56.8h0c-4.66-1.25-9.46,1.52-10.71,6.17l-7.87,30.5-8.33-30.45c-1.27-4.64-6.08-7.4-10.72-6.15-2.26.61-4.15,2.06-5.32,4.08-1.17,2.03-1.48,4.39-.88,6.65l5.55,20.7c-.95-.07-1.9.02-2.83.26-3.34.87-5.86,3.66-6.43,7.03-1.23-.22-2.5-.17-3.72.15-4.67,1.21-7.48,6-6.27,10.66l2.23,8.58c.03.11.06.23.1.36v9.21c0,17.06,13.88,30.94,30.94,30.94,2.78,0,5.55-.37,8.21-1.11.36-.08,2.27-.56,4.86-1.79,1.01-.47,1.99-.99,2.92-1.56.08-.05.16-.1.24-.16.67-.41,1.32-.85,1.94-1.3,2.94-2.13,7.01-5.92,9.78-11.91.13-.18.24-.37.33-.56,1.76-3.96,2.65-8.19,2.65-12.56v-10.94c0-5.99-3.44-11.51-8.8-14.16l8.3-31.95c1.25-4.66-1.53-9.46-6.19-10.71ZM26.23,65.17c1.52.45,3.16.48,4.7.09,2.1-.54,3.88-1.82,5.07-3.6,1.89.97,4.12,1.22,6.18.68,1.61-.42,3.1-1.32,4.24-2.54,1.53.68,3.21,1.04,4.88,1.04h2.3c-2.84,3.19-4.4,7.25-4.4,11.56v1.85c0,1.62,1.32,2.93,2.93,2.93s2.93-1.32,2.93-2.93v-1.85c0-6.37,5.19-11.56,11.56-11.56,1.62,0,2.93-1.32,2.93-2.93s-1.32-2.93-2.93-2.93h-15.33c-3.36,0-6.1-2.74-6.1-6.1,0-.65.53-1.17,1.17-1.17h20.09c5.47,0,9.92,4.45,9.92,9.92v10.94c0,1.03-.06,2.07-.19,3.1h0c-.01.06-.02.11-.03.16-1.17,7.21-4.52,12.9-9.97,16.91-1.36,1-2.84,1.88-4.39,2.61-3.26,1.5-6.89,2.3-10.5,2.3-13.83,0-25.08-11.25-25.08-25.08v-3.38ZM40.61,44.83c-.83,1.18-1.28,2.61-1.28,4.05,0,2.61.87,5.17,2.45,7.25-.32.25-.68.44-1.08.54-.75.19-1.52.08-2.19-.31-.66-.39-1.14-1.02-1.33-1.76l-3.33-12.84c-.4-1.54.53-3.12,2.07-3.51.24-.06.49-.09.73-.09.51,0,1.01.14,1.46.4.57.34.99.84,1.23,1.45l1.27,4.84ZM42.99,8.57l9.1,33.27h-5.72c-.15,0-.31,0-.46.02l-8.51-31.77c-.2-.75-.1-1.53.29-2.2.39-.67,1.01-1.15,1.76-1.35.24-.07.5-.1.75-.1,1.3,0,2.45.88,2.8,2.13ZM31.21,58.25c-.39.66-1.02,1.14-1.76,1.33-.75.19-1.52.09-2.18-.31-.66-.39-1.14-1.02-1.33-1.76l-2.23-8.58c-.4-1.54.53-3.12,2.07-3.51.74-.19,1.53-.08,2.19.31.66.39,1.14,1.02,1.33,1.76l2.23,8.58c.19.75.09,1.52-.3,2.19ZM61.85,41.84l8.66-33.33c.41-1.54,1.99-2.45,3.53-2.04,1.54.41,2.45,1.99,2.04,3.52l-8.29,31.91c-.45-.04-.89-.06-1.33-.06h-4.62Z"/>
</svg>